<svg height="65.19" width="83.005" xmlns="http://www.w3.org/2000/svg"><g fill="#ae1516"><path d="M63.187 65.025c-.343-.013-.724-.026-1.08-.026s-.712.013-1.017.026a.345.345 0 0 1-.394-.356.354.354 0 0 1 .381-.356h.013c.1 0 .178.013.241.013.2 0 .445 0 .445-.241.013-1.118.025-3.456.025-5.26v-1.69c0-.381-.076-.546-.419-.559a2.531 2.531 0 0 0-.28.012h-.025a.316.316 0 0 1-.33-.343.363.363 0 0 1 .369-.381h.394a.932.932 0 0 1 1.042 1.029v.038a440.527 440.527 0 0 0-.038 6.086v1.067c0 .2.165.229.521.229h.165a.357.357 0 1 1 0 .711zm5.488-.8c-.013-.038-.026-.064-.051-.064a.068.068 0 0 0-.051.038 2.348 2.348 0 0 1-1.931.979 1.891 1.891 0 0 1-2.058-1.753 1.7 1.7 0 0 1 1.359-1.575 20.447 20.447 0 0 1 2.35-.521c.152-.025.2-.063.2-.152 0-.064.013-.14.013-.2 0-.7-.292-1.245-1.322-1.245a2 2 0 0 0-1.486.61.354.354 0 0 1-.267.127.344.344 0 0 1-.356-.343c0-.483 1.067-1.029 2.16-1.029a1.738 1.738 0 0 1 1.982 1.944 3.43 3.43 0 0 1-.013.356c-.038.419-.064 1.08-.064 1.563 0 .928.089 1.232.6 1.41a.322.322 0 0 1 .216.318.344.344 0 0 1-.343.356 1.081 1.081 0 0 1-.94-.813m-.191-1.944v-.168c0-.1-.038-.14-.127-.14h-.038c-1.995.317-3.049.572-3.049 1.461a1.214 1.214 0 0 0 1.36 1.067c.648 0 1.855-.267 1.855-2.223m2.655 2.033c.419 0 .661-.089.661-.75.013-1.334.013-3.164.013-4.7v-1.69c0-.483-.153-.6-.534-.6a1.014 1.014 0 0 0-.165.012.336.336 0 0 1-.368-.355.357.357 0 0 1 .356-.369h.406a.941.941 0 0 1 1.029 1.054v.038c-.013.877-.025 1.931-.025 3.074 0 .089 0 .14.025.14s.063-.025.114-.1a2.538 2.538 0 0 1 2.058-.978 2.855 2.855 0 0 1 2.884 3.024 2.82 2.82 0 0 1-2.884 3.024 2.7 2.7 0 0 1-2.1-.966c-.064-.076-.1-.127-.127-.127s-.038.038-.051.114a1.074 1.074 0 0 1-1.131.915c-.457 0-.521-.28-.521-.407a.336.336 0 0 1 .343-.356zm5.692-2.2a2.164 2.164 0 1 0-4.307 0 2.161 2.161 0 1 0 4.307 0m5.97-2.693c-.013.267-.013.445-.013.635s0 .369.013.661v.025a.313.313 0 0 1-.318.305.326.326 0 0 1-.356-.33c0-1.016-1.131-1.016-1.207-1.016-.661 0-1.029.394-1.029.813a.979.979 0 0 0 .623.839c.356.165.966.419 1.36.623a1.818 1.818 0 0 1 1.131 1.575 1.768 1.768 0 0 1-2.007 1.639 1.994 1.994 0 0 1-1.271-.419.161.161 0 0 0-.089-.051c-.025 0-.038.025-.038.063 0 .318-.152.356-.3.356a.307.307 0 0 1-.33-.305v-.026c.013-.28.025-.47.025-.66s-.013-.381-.025-.686v-.025a.334.334 0 0 1 .356-.33.326.326 0 0 1 .343.343c0 .089-.025.153-.025.242 0 .419.635.838 1.359.838.648 0 1.271-.368 1.271-.978 0-.673-.559-.978-2.033-1.588a1.481 1.481 0 0 1 .7-2.871 2.044 2.044 0 0 1 1.118.343.093.093 0 0 0 .076.026c.063 0 .051-.114.063-.153a.286.286 0 0 1 .292-.2.3.3 0 0 1 .318.3z"/><path d="M42.591 50.98a2.018 2.018 0 0 1-2.172 2.033h-.07c-1.952-.073-4.121-.146-6.146-.146s-4.05.073-5.785.146a1.967 1.967 0 0 1-2.241-2.034 2.017 2.017 0 0 1 2.169-2.036h.073c.94 0 1.374.073 2.531.073a1.281 1.281 0 0 0 1.369-1.449c.073-6.9.073-14.016.073-20.334 0-2.323-.723-3.341-2.675-3.341-.434 0-.651.073-1.085.073h-.145a1.86 1.86 0 0 1-1.881-2.033 1.993 1.993 0 0 1 2.025-2.107c1.374 0 1.229.073 2.82.073 3.9 0 5.207 2.832 5.207 5.955v.217c-.073 5.084-.145 10.6-.145 15.9v5.673a1.273 1.273 0 0 0 1.3 1.38c1.157 0 1.446-.073 2.531-.073h.075a2.017 2.017 0 0 1 2.169 2.033m18-2.033h-.94c-2.025 0-2.965-.146-2.965-1.307v-6.1c0-10.531.072-26.943.217-34.786v-.218c0-3.2-1.519-5.883-5.929-5.883H35.393a2.072 2.072 0 0 0-2.1 2.179 1.8 1.8 0 0 0 1.881 1.961h.145c.94-.072 14.28-.072 14.93-.072 1.953.072 2.386 1.016 2.386 3.2v9.659c0 10.312-.072 23.674-.145 30.065 0 1.38-1.374 1.38-2.531 1.38-.361 0-.8-.073-1.374-.073h-.066a2.017 2.017 0 0 0-2.169 2.033 1.967 1.967 0 0 0 2.241 2.034c1.735-.073 3.76-.146 5.785-.146s4.194.073 6.146.146h.072a2.038 2.038 0 1 0 0-4.067m20.245 0h-.94c-2.025 0-2.965-.146-2.965-1.307v-6.105c0-4.918.016-11.119.047-17.131.934.5 1.815.976 2.162 1.191l.128.067a1.8 1.8 0 0 0 2.568-.872 2.08 2.08 0 0 0-.864-2.9l-3.967-2.064c.035-5.14.082-9.836.142-13.073v-.218c0-3.2-1.519-5.883-5.929-5.883h-7.66a2.072 2.072 0 0 0-2.1 2.179 1.8 1.8 0 0 0 1.88 1.961h.145c.94-.072 6.358-.072 7.009-.072 1.952.072 2.386 1.016 2.386 3.2v9.659c0 10.312-.072 23.674-.145 30.065 0 1.38-1.374 1.38-2.531 1.38-.361 0-.8-.073-1.374-.073h-.072a2.017 2.017 0 0 0-2.169 2.033 1.967 1.967 0 0 0 2.241 2.034c1.735-.073 3.76-.146 5.785-.146s4.194.073 6.146.146h.073a2.038 2.038 0 1 0 0-4.067M22.85 19.825h-7.014c-.723 0-.94-.072-.94-.726-.072-.945-.072-2.542-.072-4.284v-2.252c.217-4.721 3.037-8.57 7.737-8.57h.868a2.006 2.006 0 0 0 2.169-1.961c0-1.96-2.531-2.033-3.254-2.033-5.64 0-11.425 4.284-11.642 12.127v1.889c0 2.323.073 4.284.073 5.01s-.217.8-1.013.8H5.134a1.9 1.9 0 0 0-1.88 2.034 1.824 1.824 0 0 0 1.88 1.888h5.641v16.63c-.217 4.721-3.037 8.57-7.737 8.57h-.869A2.006 2.006 0 0 0 0 50.908c0 1.96 2.531 2.033 3.254 2.033 5.64 0 11.425-4.284 11.642-12.127v-16.05c0-.872.073-1.017.8-1.017h7.159a1.883 1.883 0 0 0 1.88-1.961 1.844 1.844 0 0 0-1.88-1.961m6.291-8.034a3.48 3.48 0 0 0-3.543-3.413 3.383 3.383 0 0 0-3.4 3.413c0 2.179 1.157 3.487 3.4 3.487a3.273 3.273 0 0 0 3.543-3.487"/></g></svg>